HIERARCHY
ROOT Pelvis
{
	OFFSET 0.000000 0.950587 0.000000
	CHANNELS 6 Xposition Yposition Zposition Zrotation Yrotation Xrotation 
	JOINT L_Hip
	{
		OFFSET 0.052639 -0.080465 -0.035483
		CHANNELS 3 Zrotation Yrotation Xrotation
		JOINT L_Knee
		{
			OFFSET 0.050796 -0.376999 0.111822
			CHANNELS 3 Zrotation Yrotation Xrotation
			JOINT L_Ankle
			{
				OFFSET -0.034879 -0.414819 -0.111926
				CHANNELS 3 Zrotation Yrotation Xrotation
				End Site #name: L_Foot
				{
					OFFSET 0.066127 -0.048845 0.120004
				}
			}
		}
	}
	JOINT R_Hip
	{
		OFFSET -0.057858 -0.086150 -0.039694
		CHANNELS 3 Zrotation Yrotation Xrotation
		JOINT R_Knee
		{
			OFFSET -0.061479 -0.377091 0.086936
			CHANNELS 3 Zrotation Yrotation Xrotation
			JOINT R_Ankle
			{
				OFFSET 0.001726 -0.416988 -0.079253
				CHANNELS 3 Zrotation Yrotation Xrotation
				End Site #name: R_Foot
				{
					OFFSET -0.080256 -0.051614 0.121373
				}
			}
		}
	}
	JOINT Spine1
	{
		OFFSET 0.008260 0.131795 -0.002566
		CHANNELS 3 Zrotation Yrotation Xrotation
		JOINT Spine2
		{
			OFFSET 0.011364 0.105492 0.092388
			CHANNELS 3 Zrotation Yrotation Xrotation
			JOINT Spine3
			{
				OFFSET -0.002571 0.045340 0.034499
				CHANNELS 3 Zrotation Yrotation Xrotation
				JOINT Neck
				{
					OFFSET -0.018439 0.191089 0.110596
					CHANNELS 3 Zrotation Yrotation Xrotation
					End Site #name: Head
					{
						OFFSET 0.002389 0.075918 0.070872
					}
				}
				JOINT L_Collar
				{
					OFFSET 0.068485 0.106459 0.058479
					CHANNELS 3 Zrotation Yrotation Xrotation
					JOINT L_Shoulder
					{
						OFFSET 0.129836 0.007905 -0.021159
						CHANNELS 3 Zrotation Yrotation Xrotation
						JOINT L_Elbow
						{
							OFFSET 0.018741 -0.135093 -0.219948
							CHANNELS 3 Zrotation Yrotation Xrotation
							End Site #name: L_Wrist
							{
								OFFSET 0.023301 -0.267460 0.021367
							}
						}
					}
				}
				JOINT R_Collar
				{
					OFFSET -0.085925 0.105032 0.048170
					CHANNELS 3 Zrotation Yrotation Xrotation
					JOINT R_Shoulder
					{
						OFFSET -0.120637 -0.007019 -0.012929
						CHANNELS 3 Zrotation Yrotation Xrotation
						JOINT R_Elbow
						{
							OFFSET -0.010887 -0.142983 -0.224101
							CHANNELS 3 Zrotation Yrotation Xrotation
							End Site #name: R_Wrist
							{
								OFFSET 0.009830 -0.266116 -0.021953
							}
						}
					}
				}
			}
		}
	}
}
MOTION
Frames: 22
Frame Time: 0.041667
0.038295 0.876690 0.573041 -2.513266 0.928958 -16.117513 2.600146 1.789569 9.510077 -0.953749 -1.684700 24.017131 9.566012 7.746299 -13.454563 -0.807825 -1.121319 6.085465 3.335888 -1.478692 30.081789 -9.300868 -3.712136 -12.641201 0.421194 0.689158 -9.941450 0.202872 -0.220371 -1.234800 -0.680028 0.726872 0.191272 1.032207 -1.396643 8.328825 -0.593599 1.534136 -0.197721 5.529371 -8.636608 -9.165214 -5.889847 -1.213405 -5.283296 3.546206 0.108344 -0.382485 -6.361658 8.886356 -10.239363 7.095835 -0.371265 -8.433552 
0.040372 0.900631 0.570854 -2.591256 0.878672 -13.198094 2.714171 1.857855 9.940868 -0.233512 -1.295883 15.869818 7.676758 5.861565 -10.726392 -0.609585 -1.089679 6.103373 2.774300 -1.036610 23.052829 -7.286161 -2.429483 -10.024720 0.101927 0.876237 -9.451294 0.286682 -0.280894 -1.199839 -0.715804 0.632248 -0.123208 1.394902 -1.680670 6.583291 -0.927111 -0.188054 -0.138227 5.193438 -8.176383 -9.527179 -6.704081 -1.068655 -3.597960 3.168354 1.292199 -0.378951 -6.212136 8.706402 -10.101410 8.175795 -0.389866 -8.165334 
0.041722 0.921027 0.565501 -2.678786 0.879020 -10.350938 2.921434 1.911750 10.059455 0.045312 -0.734927 8.368076 5.727101 4.301863 -7.818433 -0.249222 -1.037406 6.168510 2.114805 -0.648550 15.916587 -5.227792 -1.373093 -7.303165 -0.238967 1.014725 -8.217059 0.364050 -0.347368 -1.374899 -0.608688 0.498935 -0.286799 1.577719 -1.755094 4.725593 -1.368255 -1.672728 -0.101487 4.933097 -7.823747 -9.792217 -6.791140 -0.779497 -1.580299 2.866762 2.260118 -0.382518 -6.059007 8.532968 -9.816006 8.449789 -0.413159 -7.618199 
0.042198 0.937621 0.557996 -2.799334 0.917543 -7.297345 3.211033 1.932548 9.684922 -0.160205 -0.064066 1.295276 3.780727 3.146000 -4.788064 0.278605 -0.955273 6.225459 1.343518 -0.322861 8.297986 -3.095356 -0.968472 -4.156898 -0.665610 1.174664 -6.368701 0.497399 -0.453819 -1.529041 -0.444253 0.348337 -0.475332 1.740335 -1.794305 2.754227 -1.762673 -2.904972 -0.066023 4.635404 -7.425399 -9.928320 -6.295378 -0.411836 0.657047 2.614215 3.013523 -0.387405 -5.717175 8.127428 -9.329731 8.106739 -0.445244 -6.518854 
0.041781 0.947187 0.548834 -2.882731 1.003121 -4.175636 3.420909 1.855505 8.460102 -0.600377 0.492031 -4.249274 2.196736 2.659450 -2.088582 0.745149 -0.784301 5.682824 0.533987 -0.102491 1.449193 -1.145040 -0.945413 -1.135691 -1.125401 1.325881 -3.891717 0.532588 -0.486200 -1.660518 -0.176570 0.205905 -0.652900 1.905121 -1.809456 0.477486 -1.988530 -3.418888 -0.056876 4.196829 -6.840910 -9.988781 -5.231398 -0.095040 2.434716 2.525014 3.521966 -0.398805 -4.961423 7.190787 -8.468085 7.191353 -0.468339 -4.746452 
0.040518 0.950196 0.537999 -2.904893 1.134572 -1.244360 3.480724 1.630317 6.030130 -0.916879 0.792640 -7.344091 1.100416 2.659502 -0.007029 1.036791 -0.501224 4.320730 -0.077471 -0.002212 -3.519487 0.218008 -1.368969 1.228188 -1.543174 1.429113 -0.956300 0.486801 -0.458796 -1.791050 0.157698 0.109682 -0.784198 1.965982 -1.720428 -1.849156 -2.166746 -3.309843 -0.089505 3.485697 -5.888497 -9.813885 -3.672749 0.141429 3.647797 2.655208 3.947738 -0.423874 -3.814309 5.709840 -7.109895 5.783913 -0.446492 -2.173969 
0.038513 0.947925 0.525769 -2.827927 1.264070 1.631142 3.449386 1.214931 1.935882 -1.119173 0.849557 -7.570827 0.460624 2.950293 1.426507 1.057917 0.006835 1.376046 -0.388410 0.030267 -5.742830 0.994616 -2.057327 2.870956 -1.920077 1.480686 2.489085 0.299152 -0.340722 -2.182734 0.542721 0.063328 -0.749917 1.999974 -1.606983 -4.206721 -2.317177 -2.858403 -0.146574 2.321658 -4.301453 -9.314349 -1.865177 0.271985 4.073660 2.873310 4.502013 -0.458383 -2.177150 3.457536 -5.168573 4.059051 -0.333495 0.835810 
0.036049 0.937626 0.512957 -2.717150 1.363694 4.414514 3.606837 0.630670 -4.296687 -1.504344 0.666537 -3.765422 0.625098 3.360576 1.449912 0.649209 0.794156 -3.778810 -0.078911 -0.003029 -3.737231 0.742064 -2.627028 2.882387 -2.195686 1.414147 6.501374 0.058143 -0.202423 -2.883124 0.866651 0.114262 -0.592121 1.877559 -1.376401 -6.377981 -2.654123 -2.239783 -0.245471 0.821975 -2.200153 -8.601654 0.082583 0.335802 3.819416 3.256298 5.292836 -0.508386 -0.342905 0.723575 -2.944797 2.576669 -0.162924 3.454891 
0.033680 0.917279 0.500898 -2.577423 1.381242 6.768707 4.131478 0.028155 -12.102360 -2.654188 0.455423 4.341964 1.885224 3.826840 -0.572413 -0.323651 1.695990 -10.794683 1.018369 -0.208790 2.990528 -0.659765 -3.136316 1.086785 -2.383817 1.221445 11.098747 -0.276830 -0.015480 -3.829733 1.144204 0.180298 -0.603887 1.507482 -0.974722 -8.222827 -3.408957 -1.715033 -0.401961 -0.815142 0.144182 -7.987007 2.135549 0.362823 2.825026 4.147672 6.226942 -0.583846 1.295660 -1.879519 -1.349809 1.287966 0.034847 5.481242 
0.031799 0.886085 0.491739 -2.532655 1.405432 8.252103 5.023562 -0.398511 -20.368594 -4.313377 0.451900 15.579063 3.990762 4.232447 -4.373820 -1.762305 2.438719 -18.527670 2.871719 -0.854859 13.763968 -3.218883 -3.826386 -2.468983 -2.453855 0.886879 15.748798 -0.712015 0.234809 -4.759123 1.480041 0.186029 -0.932085 1.011331 -0.495497 -10.095856 -4.573632 -1.258849 -0.621452 -2.290524 2.311124 -7.426983 4.440515 0.408119 1.135472 5.535570 7.330245 -0.668660 2.552985 -3.904954 -0.673016 -0.292643 0.307238 7.118205 
0.030738 0.842786 0.487972 -2.634108 1.509291 8.342557 5.845391 -0.689945 -27.869165 -5.745977 0.592934 28.799122 6.521562 4.636793 -9.202456 -3.499361 2.895804 -26.402117 5.421233 -2.386735 28.176711 -6.579712 -4.993982 -7.192357 -2.414889 0.474038 19.562337 -1.112970 0.455739 -5.631217 1.879611 0.116259 -1.248968 0.683322 -0.183056 -11.645146 -5.849663 -0.616230 -0.888657 -3.281758 3.786382 -7.097189 6.729243 0.508478 -0.969289 7.006900 8.505922 -0.729206 3.271376 -5.060094 -0.438928 -2.291332 0.624477 7.568449 
0.030678 0.800612 0.492531 -2.707118 1.516519 6.860041 6.036448 -1.005870 -32.271630 -6.496499 0.651680 40.823201 8.782126 5.205521 -13.552972 -4.735716 2.988349 -31.315644 7.182932 -4.164261 40.897360 -9.437975 -6.263774 -11.252903 -2.332874 0.214198 21.090489 -1.160630 0.438907 -6.365930 1.941470 0.129790 -1.235430 0.858780 -0.288942 -12.362671 -6.865279 0.277039 -1.157373 -3.323042 3.858817 -7.031634 8.719894 0.659372 -3.281768 8.262268 9.091077 -0.762389 2.884686 -4.515486 -0.080039 -4.407237 0.839247 6.232891 
0.031381 0.770810 0.506108 -2.711710 1.448341 4.573992 5.791071 -1.234026 -32.964508 -6.800608 0.617612 49.149169 10.581864 6.141710 -16.836897 -5.102266 2.938465 -32.372012 7.602432 -5.159459 49.192848 -11.414283 -6.663407 -14.505883 -2.267210 0.217625 20.275865 -0.729874 0.119938 -6.809658 1.794328 0.231189 -1.113614 1.232399 -0.560222 -12.568688 -7.380815 1.450153 -1.388850 -2.626117 2.888756 -6.879668 10.051800 0.808167 -6.693237 9.544992 8.882605 -0.802899 1.472298 -2.299667 -0.082871 -6.864568 0.988376 4.292281 
0.032222 0.750753 0.526607 -2.749901 1.358168 1.699657 5.131096 -1.410088 -30.679848 -6.639852 0.275058 55.012463 12.318039 7.695875 -19.741173 -4.913650 2.817940 -30.807388 7.119377 -5.321677 54.777335 -12.875040 -6.645545 -17.168739 -2.206327 0.452450 17.267340 0.042438 -0.384410 -6.539984 1.476784 0.371045 -1.355223 1.508225 -0.810185 -11.635026 -7.012352 2.566381 -1.457792 -0.974506 0.462434 -7.303018 10.596586 0.922998 -12.966969 10.429263 8.055087 -0.855841 -1.078749 1.736029 -1.084134 -9.594317 0.832506 0.301403 
0.033226 0.760080 0.552226 -2.845955 1.256799 -1.543579 3.657450 -1.454454 -23.552255 -4.972378 -1.187295 53.939601 13.347340 9.549687 -20.947534 -3.686233 2.446091 -24.015888 5.635642 -4.061363 53.481669 -12.890119 -5.897998 -17.651191 -1.863512 0.833249 9.350811 1.248360 -1.122584 -4.518631 0.693638 0.674458 -1.484434 1.317609 -0.750306 -9.756131 -5.274157 2.796696 -1.157860 2.682110 -4.802291 -9.607893 11.794976 1.370662 -25.125926 9.199347 6.956000 -0.834487 -5.147423 7.778302 -3.398916 -11.837743 -0.298559 -9.079693 
0.035150 0.803496 0.581554 -2.897428 1.057288 -4.279918 2.889048 -0.613872 -13.199226 -2.632575 -2.343290 43.664776 11.793352 7.906190 -18.393178 -3.211860 1.230642 -14.305828 4.829013 -2.921067 44.378335 -9.882121 -2.424386 -14.405359 -0.932634 0.890463 -0.802526 1.991654 -1.570341 -1.952035 -0.420358 1.033792 -1.056113 0.946114 -0.535912 -7.867474 -3.177928 2.221345 -0.713854 8.128351 -11.735368 -13.619715 14.051681 2.386748 -33.046911 5.376453 6.500277 -0.651906 -8.714968 12.566878 -5.758406 -11.456058 -1.604120 -18.547764 
0.038106 0.880649 0.610934 -3.211425 0.853127 -6.569369 3.352738 0.935942 -0.534566 0.332789 -2.535661 25.861019 4.091530 -0.490078 -7.943190 -3.296959 -0.348712 -3.068848 4.409425 -1.943439 28.791612 -1.198110 1.779717 -2.925576 0.345957 0.824162 -10.757682 1.873389 -1.374766 1.583580 -0.785736 0.836488 -1.915739 -0.486830 0.550195 -4.210426 -0.564990 1.625610 -0.198667 12.992967 -16.770711 -18.825663 14.113232 2.445365 -33.870754 1.722592 5.848592 -0.439237 -11.729943 16.003656 -8.951500 -8.243631 -1.707820 -21.857066 
0.042025 1.008295 0.636966 -3.480622 1.066631 -7.665561 5.272946 2.624851 13.087716 2.012053 -0.515214 -0.276977 -13.766729 -2.552608 20.602315 -3.080632 -1.950745 9.425691 4.752595 -1.079015 4.478801 12.009168 -5.037625 20.689040 1.219118 1.067304 -19.181020 1.266056 -0.837272 3.130314 -0.286919 0.366281 -3.155715 -1.792491 1.667202 2.376548 1.100749 -0.868376 0.224064 16.363965 -19.278507 -24.394199 13.719777 2.131934 -29.696523 -0.980997 6.709073 -0.345507 -14.084723 17.788932 -13.890247 -5.151855 -1.220254 -20.070312 
0.046084 1.132528 0.653204 -2.682525 1.141724 -7.593887 7.369853 3.601653 23.358259 -0.508105 1.900539 -23.149928 -20.641053 8.169397 40.447806 -2.221672 -2.917872 17.397198 4.423106 -0.403184 -12.407755 13.320355 -15.615781 31.994136 1.225013 1.885615 -27.864671 0.600414 -0.298749 3.192405 -0.666218 0.377511 -3.178753 -1.936381 1.807912 7.568770 2.168738 -7.023003 0.654261 23.073088 -23.184506 -33.813970 14.431162 1.936795 -19.387663 -0.658939 11.251923 -0.658241 -17.096161 19.066945 -22.044728 -0.173509 -0.597897 -15.995054 
0.050347 1.219574 0.653135 -2.192982 1.501195 -8.718359 6.507741 3.787669 27.178623 -0.074315 2.141619 -26.581318 -18.724613 9.121353 38.894624 -1.056036 -3.118289 19.335733 5.108516 -0.608918 -8.722826 11.518158 -13.613659 27.604408 1.168118 2.171101 -30.743833 0.448791 -0.200888 2.730875 -0.519598 0.498228 -3.283549 -1.829944 1.687932 11.131203 2.386313 -14.216474 0.979953 33.206393 -27.110567 -46.015489 14.864620 1.452029 -6.182333 1.836574 16.980485 -0.931972 -23.759739 21.337634 -35.699810 2.702742 -0.353524 -9.965077 
0.054323 1.275329 0.647337 -1.652490 1.594044 -9.821161 5.798531 3.854340 28.549528 -0.256809 1.901712 -23.363515 -16.235259 7.868780 34.005953 -0.173438 -3.085334 19.429106 4.819495 -0.757641 -4.048005 10.958553 -10.475763 23.884947 0.757443 2.294519 -29.850247 0.778923 -0.521327 1.531719 -0.412509 0.639768 -3.201234 -2.201479 2.117016 12.604419 3.018585 -19.324312 1.197011 40.867415 -28.571271 -55.174431 15.327004 0.997616 4.619372 3.449946 21.470786 -0.998163 -29.375730 22.442597 -45.519323 0.995854 -0.257328 -6.238568 
0.058611 1.295594 0.640071 -1.212041 1.605290 -10.380288 5.387004 3.918812 29.580960 -0.474772 1.760379 -21.296886 -15.108708 6.519907 30.931698 -0.170933 -3.018382 18.994379 4.777381 -0.826384 -2.104624 11.322484 -8.675146 22.778887 0.479675 2.384699 -29.277490 0.837077 -0.605691 0.682756 -0.118497 0.527678 -3.073482 -2.344706 2.295130 13.941638 4.087968 -23.411324 1.305797 45.495304 -29.211021 -59.997929 17.142097 0.706888 10.325552 4.020575 25.159591 -1.044170 -32.907254 22.193506 -52.963245 -1.595790 -0.043951 -3.452834 
